# xmcd
#
# Track frame offsets:
#	187
#	17705
#	45955
#	77290
#	111737
#
# Disc length: 1898 seconds
# Revision: 0
# Processed by: cddbd v1.5.2PL0 Copyright (c) Steve Scherf et al.
# Submitted via: dBpowerAMP V12.0
#
DISCID=30076805
DTITLE=Judy Cheeks - As Long As You're Good To Me
DYEAR=1995
DGENRE=House
TTITLE0=As Long As You're Good To Me [Love To Infinity's Classic Paradise Radio Mix]
TTITLE1=As Long As You're Good To Me [Love To Infinity's Classic Paradise Club Mix]
TTITLE2=As Long As You're Good To Me [Dancing Divaz Club Mix]
TTITLE3=As Long As You're Good To Me [Frankie Foncett Vocal Mix]
TTITLE4=As Long As You're Good To Me [Kittens On The Keys Mix]
EXTD=
EXTT0=
EXTT1=
EXTT2=
EXTT3=
EXTT4=
PLAYORDER=
